# xmcd CD database file
#
# Track frame offsets:
#	150
#	20310
#	39440
#	57327
#	74582
#	87985
#	105367
#	124002
#	140762
#	162407
#	186180
#	198712
#	220012
#	239810
#
# Disc length: 3557 seconds
#
# Revision: 2
# Processed by: cddbd v1.4PL0 Copyright (c) Steve Scherf et al.
# Submitted via: CDex 1.40Beta9
#
DISCID=d00de30e
DTITLE=Marlon e Maicon - Marlon e Maicon
DYEAR=2001
DGENRE=Country
TTITLE0=Por Te Amar Assim
TTITLE1=Se Pintar Romance
TTITLE2=Quando Eu Mais Precisei De Você
TTITLE3=Tá Na Cara
TTITLE4=Ainda Vou Te Esquecer
TTITLE5=Chama
TTITLE6=Vou Ganhar Você
TTITLE7=Vida Sem Rumo
TTITLE8=Minha Amiga
TTITLE9=A Minha História
TTITLE10=Um Sonho Pra Mim
TTITLE11=Eu Preciso Dizer Que Não
TTITLE12=Tudo Me Lembra Você
TTITLE13=Mil E Uma Noites De Amor
EXTD=YEAR: 2001 ID3G: 2
EXTT0=
EXTT1=
EXTT2=
EXTT3=
EXTT4=
EXTT5=
EXTT6=
EXTT7=
EXTT8=
EXTT9=
EXTT10=
EXTT11=
EXTT12=
EXTT13=
PLAYORDER=
